<svg version="1.1" id="layer" xmlns="http://www.w3.org/2000/svg" xmlns:xlink="http://www.w3.org/1999/xlink" x="0px" y="0px" style="enable-background:new 0 0 652 652;" xml:space="preserve" viewBox="25.47 248.83 599.95 151.58">
<style type="text/css">
	.st0{fill:#00BCFF;}
	.st1{fill:#FFFFFF;}
	.st2{fill:#0A0080;}
</style>
<path class="st0" d="M134.9,251.7c-59.3,0-107.4,30.8-107.4,68.7s48.1,71.7,107.4,71.7s107.4-33.7,107.4-71.7  S194.2,251.7,134.9,251.7z"/>
<path class="st1" d="M99.9,299.2c-0.1,0.1-1.1,1.2-0.4,2.1c1.7,2.1,6.8,3.3,12,2.2c3.1-0.7,7-3.8,10.9-6.9c4.2-3.3,8.3-6.6,12.4-7.9  c4.4-1.4,7.2-0.8,9.1-0.2c2,0.6,4.4,2,8.3,4.8c7.2,5.4,36.1,30.7,41.2,35c4-1.8,23.2-9.6,47.5-14.9c-2.1-13-9.9-25.3-21.9-35  c-16.7,7-38.4,11.2-58.4,1.5c-0.1,0-10.9-5.1-21.5-4.9c-15.8,0.4-22.7,7.2-29.9,14.5L99.9,299.2L99.9,299.2z"/>
<path class="st1" d="M192.1,331c-0.3-0.3-34-29.8-41.7-35.5c-4.4-3.3-6.9-4.2-9.5-4.5c-1.3-0.2-3.2,0.1-4.5,0.4  c-3.6,1-8.2,4.1-12.3,7.3c-4.3,3.4-8.3,6.6-12,7.4c-4.8,1.1-10.6-0.2-13.3-2c-1.1-0.7-1.8-1.6-2.2-2.4c-1-2.3,0.8-4.1,1.1-4.4  l9.3-10.1c1.1-1.1,2.2-2.2,3.3-3.2c-3,0.4-5.8,1.2-8.5,1.9c-3.4,0.9-6.6,1.8-9.9,1.8c-1.4,0-8.7-1.2-10.1-1.6  c-8.4-2.3-18-4.5-29-9.7c-13.2,9.8-21.8,21.9-24.4,35.5c1.9,0.5,6.9,1.6,8.2,1.9c29.9,6.7,39.2,13.5,40.9,14.9  c1.8-2,4.5-3.3,7.4-3.3c3.3,0,6.3,1.7,8.1,4.2c1.7-1.4,4.1-2.5,7.1-2.5c1.4,0,2.8,0.3,4.3,0.7c3.4,1.2,5.1,3.4,6,5.4  c1.1-0.5,2.5-0.9,4.2-0.9c1.6,0,3.3,0.4,5,1.1c5.5,2.4,6.4,7.8,5.9,11.9c0.4,0,0.8-0.1,1.2-0.1c6.5,0,11.9,5.3,11.9,11.9  c0,2-0.5,3.9-1.4,5.6c1.8,1,6.3,3.3,10.3,2.8c3.2-0.4,4.4-1.5,4.8-2.1c0.3-0.4,0.6-0.9,0.3-1.3l-8.4-9.4c0,0-1.4-1.3-0.9-1.8  c0.5-0.5,1.3,0.2,1.9,0.7c4.3,3.6,9.5,9,9.5,9c0.1,0.1,0.4,0.7,2.4,1.1c1.7,0.3,4.6,0.1,6.7-1.6c0.5-0.4,1-1,1.5-1.5  c0,0-0.1,0.1-0.1,0.1c2.2-2.8-0.2-5.6-0.2-5.6l-9.9-11.1c0,0-1.4-1.3-0.9-1.8c0.4-0.5,1.3,0.2,2,0.7c3.1,2.6,7.5,7,11.8,11.2  c0.8,0.6,4.5,2.9,9.5-0.3c3-2,3.6-4.4,3.5-6.2c-0.2-2.4-2.1-4.1-2.1-4.1l-13.5-13.5c0,0-1.4-1.2-0.9-1.8c0.4-0.5,1.3,0.2,1.9,0.7  c4.3,3.6,15.9,14.2,15.9,14.2c0.2,0.1,4.2,3,9.1-0.2c1.8-1.1,2.9-2.8,3-4.8C194.5,333,192.1,331,192.1,331L192.1,331z"/>
<path class="st1" d="M126.8,348.1c-2.1,0-4.4,1.2-4.7,1c-0.2-0.1,0.1-0.9,0.3-1.4c0.2-0.5,2.9-8.7-3.7-11.6  c-5.1-2.2-8.3,0.3-9.3,1.4c-0.3,0.3-0.4,0.3-0.4-0.1c-0.1-1.5-0.8-5.5-5.2-6.9c-6.3-1.9-10.4,2.5-11.4,4.1c-0.5-3.6-3.5-6.4-7.2-6.4  c-4.1,0-7.3,3.3-7.4,7.3c0,4.1,3.3,7.3,7.3,7.3c2,0,3.8-0.8,5.1-2c0,0,0.1,0.1,0,0.2c-0.3,1.8-0.9,8.4,6,11.1  c2.8,1.1,5.1,0.3,7.1-1.1c0.6-0.4,0.7-0.2,0.6,0.3c-0.3,1.7,0.1,5.3,5.2,7.4c3.9,1.6,6.2,0,7.7-1.4c0.7-0.6,0.8-0.5,0.9,0.4  c0.2,4.9,4.3,8.8,9.2,8.8c5.1,0,9.2-4.1,9.2-9.2C136,352.3,131.9,348.2,126.8,348.1L126.8,348.1z"/>
<path class="st2" d="M134.9,248.9c-60.4,0-109.4,32.1-109.4,71.6c0,1,0,3.8,0,4.2c0,41.8,42.8,75.7,109.4,75.7  s109.4-33.9,109.4-75.7v-4.2C244.3,281,195.3,248.9,134.9,248.9L134.9,248.9z M239.3,312.5c-23.8,5.3-41.5,13-46,14.9  c-10.4-9.1-34.4-29.9-40.9-34.8c-3.7-2.8-6.2-4.3-8.5-4.9c-1-0.3-2.4-0.6-4.2-0.6c-1.7,0-3.4,0.3-5.3,0.9c-4.2,1.3-8.4,4.7-12.4,7.9  L122,296c-3.8,3-7.7,6.1-10.6,6.8c-1.3,0.3-2.6,0.4-3.9,0.4c-3.3,0-6.3-1-7.4-2.4c-0.2-0.2-0.1-0.6,0.4-1.2l0.1-0.1l9.1-9.8  c7.2-7.2,13.9-13.9,29.5-14.3c0.3,0,0.5,0,0.8,0c9.7,0,19.4,4.3,20.4,4.8c9.1,4.4,18.4,6.7,27.9,6.7c9.8,0,19.9-2.4,30.5-7.3  C229.7,289,237.1,300.3,239.3,312.5L239.3,312.5z M134.9,253.1c32.1,0,60.8,9.2,80.1,23.7c-9.3,4-18.2,6.1-26.8,6.1  c-8.8,0-17.6-2.1-26.1-6.3c-0.4-0.2-11.1-5.3-22.3-5.3c-0.3,0-0.6,0-0.9,0c-13.1,0.3-20.4,4.9-25.4,9c-4.8,0.1-9,1.3-12.7,2.3  c-3.3,0.9-6.1,1.7-8.9,1.7c-1.1,0-3.2-0.1-3.4-0.1c-3.2-0.1-19.2-4-32-8.8C75.9,261.7,103.8,253.1,134.9,253.1L134.9,253.1z   M52.9,278.2c13.3,5.5,29.5,9.7,34.7,10c1.4,0.1,2.9,0.3,4.5,0.3c3.4,0,6.8-1,10.1-1.9c1.9-0.5,4.1-1.1,6.3-1.6  c-0.6,0.6-1.2,1.2-1.8,1.8l-9.3,10c-0.7,0.7-2.3,2.7-1.3,5.1c0.4,1,1.3,1.9,2.4,2.7c2.2,1.5,6.2,2.5,9.8,2.5c1.4,0,2.7-0.1,3.9-0.4  c3.9-0.9,8-4.1,12.3-7.6c3.4-2.7,8.3-6.2,12.1-7.2c1.1-0.3,2.3-0.5,3.4-0.5c0.3,0,0.6,0,0.9,0.1c2.5,0.3,4.9,1.2,9.1,4.4  c7.6,5.7,41.3,35.2,41.6,35.5c0,0,2.2,1.9,2,5c-0.1,1.7-1,3.2-2.7,4.3c-1.4,0.9-2.9,1.4-4.4,1.4c-2.3,0-3.8-1.1-3.9-1.1  c-0.1-0.1-11.7-10.7-15.9-14.3c-0.7-0.6-1.3-1.1-2-1.1c-0.4,0-0.7,0.2-0.9,0.4c-0.7,0.8,0.1,2,1,2.7l13.5,13.6c0,0,1.7,1.6,1.9,3.7  c0.1,2.2-1,4.1-3.2,5.6c-1.6,1.1-3.2,1.6-4.8,1.6c-2.1,0-3.5-0.9-3.8-1.2l-1.9-1.9c-3.5-3.5-7.2-7.1-9.9-9.3c-0.7-0.5-1.3-1-2-1  c-0.3,0-0.6,0.1-0.9,0.4c-0.3,0.3-0.5,0.9,0.2,2c0.3,0.4,0.7,0.8,0.7,0.8l9.8,11.1c0.1,0.1,2,2.4,0.2,4.7l-0.4,0.4  c-0.3,0.3-0.6,0.6-0.9,0.9c-1.7,1.4-3.9,1.5-4.8,1.5c-0.5,0-0.9,0-1.3-0.1c-1-0.2-1.6-0.4-1.9-0.8l-0.1-0.1c-0.5-0.6-5.5-5.6-9.6-9  c-0.5-0.5-1.2-1-1.9-1c-0.3,0-0.6,0.1-0.9,0.4c-0.8,0.9,0.4,2.2,0.9,2.7l8.4,9.3c0,0.1-0.1,0.3-0.3,0.6c-0.3,0.4-1.3,1.4-4.4,1.8  c-0.4,0-0.7,0.1-1.1,0.1c-3.1,0-6.5-1.5-8.2-2.4c0.8-1.7,1.2-3.5,1.2-5.3c0-6.9-5.6-12.5-12.5-12.5c-0.1,0-0.3,0-0.4,0  c0.2-3.2-0.2-9.1-6.4-11.8c-1.8-0.8-3.5-1.2-5.2-1.2c-1.3,0-2.6,0.2-3.8,0.7c-1.3-2.5-3.4-4.3-6.1-5.2c-1.5-0.5-3-0.8-4.5-0.8  c-2.6,0-4.9,0.8-7,2.2c-2-2.5-5-4-8.2-4c-2.8,0-5.5,1.1-7.5,3.1c-2.6-2-13-8.6-40.7-14.9c-1.3-0.3-4.3-1.2-6.2-1.7  C33.2,299,41.1,287.6,52.9,278.2L52.9,278.2z M104.3,350.5l-0.3-0.3h-0.3c-0.2,0-0.5,0.1-0.8,0.3c-1.4,1-2.8,1.5-4.1,1.5  c-0.8,0-1.5-0.2-2.3-0.4c-6.4-2.5-5.9-8.6-5.6-10.4c0-0.4,0-0.7-0.3-0.9l-0.5-0.4l-0.4,0.4c-1.3,1.2-2.9,1.9-4.6,1.9  c-3.7,0-6.7-3-6.7-6.7c0-3.7,3-6.7,6.7-6.7c3.3,0,6.2,2.5,6.6,5.8l0.2,1.8l1-1.5c0.1-0.2,2.8-4.3,7.8-4.3c0.9,0,1.9,0.2,2.9,0.5  c4,1.2,4.6,4.8,4.7,6.3c0.1,0.9,0.7,0.9,0.8,0.9c0.3,0,0.6-0.2,0.8-0.4c0.7-0.8,2.4-2.1,4.9-2.1c1.2,0,2.4,0.3,3.7,0.8  c6.3,2.7,3.4,10.7,3.4,10.8c-0.5,1.3-0.6,1.9-0.1,2.2l0.2,0.1h0.2c0.3,0,0.6-0.1,1.2-0.3c0.9-0.3,2.1-0.7,3.4-0.7l0,0  c4.7,0.1,8.6,3.9,8.6,8.6c0,4.7-3.9,8.6-8.6,8.6c-4.6,0-8.4-3.6-8.6-8.2c0-0.4-0.1-1.4-0.9-1.4c-0.4,0-0.7,0.2-1,0.5  c-1,0.9-2.3,1.9-4.2,1.9c-0.9,0-1.8-0.2-2.8-0.6c-4.9-2-5-5.3-4.8-6.7C104.5,351.1,104.6,350.8,104.3,350.5L104.3,350.5z   M134.9,387.7c-58.1,0-105.2-30.1-105.2-67.3c0-1.5,0.1-3,0.3-4.5c0.5,0.1,5.1,1.2,6,1.4c28.3,6.3,37.7,12.8,39.3,14.1  c-0.5,1.3-0.8,2.7-0.8,4.1c0,5.9,4.8,10.6,10.6,10.6c0.7,0,1.3-0.1,2-0.2c0.9,4.3,3.7,7.6,8,9.3c1.3,0.5,2.5,0.7,3.8,0.7  c0.8,0,1.6-0.1,2.4-0.3c0.8,2,2.6,4.5,6.6,6.2c1.4,0.6,2.8,0.9,4.2,0.9c1.1,0,2.2-0.2,3.2-0.6c1.9,4.7,6.5,7.8,11.6,7.8  c3.4,0,6.6-1.4,9-3.8c2,1.1,6.3,3.2,10.6,3.2c0.6,0,1.1,0,1.6-0.1c4.3-0.5,6.3-2.2,7.2-3.5c0.2-0.2,0.3-0.5,0.4-0.7  c1,0.3,2.1,0.5,3.4,0.5c2.3,0,4.6-0.8,6.9-2.4c2.2-1.6,3.8-3.9,4-5.9c0,0,0-0.1,0-0.1c0.8,0.2,1.5,0.2,2.3,0.2c2.4,0,4.8-0.7,7-2.2  c4.4-2.9,5.1-6.6,5.1-9c0.8,0.2,1.5,0.2,2.3,0.2c2.3,0,4.5-0.7,6.6-2c2.7-1.7,4.3-4.4,4.6-7.5c0.2-2.1-0.4-4.2-1.5-6  c7.3-3.1,24-9.2,43.6-13.7c0.1,1.1,0.1,2.2,0.1,3.4C240.1,357.6,193,387.7,134.9,387.7L134.9,387.7z"/>
<path class="st2" d="M619.4,270.9c-4-5-10-7.5-18.1-7.5c-8.1,0-14.1,2.5-18.1,7.5c-4,5-6,10.9-6,17.6c0,6.8,2,12.8,6,17.7  c4,4.9,10,7.4,18.1,7.4c8.1,0,14.1-2.5,18.1-7.4c4-4.9,6-10.8,6-17.7C625.4,281.6,623.4,275.9,619.4,270.9z M609.6,299.5  c-1.9,2.6-4.7,3.8-8.3,3.8c-3.6,0-6.4-1.3-8.3-3.8c-1.9-2.6-2.9-6.2-2.9-10.9s1-8.3,2.9-10.9c1.9-2.5,4.7-3.8,8.3-3.8  c3.6,0,6.4,1.3,8.3,3.8c1.9,2.5,2.9,6.2,2.9,10.9S611.5,296.9,609.6,299.5L609.6,299.5z M517.9,266.7c-4-2-8.6-3.1-13.8-3.1  c-8,0-13.6,2.1-16.9,6.2c-2.1,2.7-3.2,6.1-3.5,10.2h11.9c0.3-1.8,0.9-3.3,1.8-4.3c1.2-1.4,3.3-2.2,6.3-2.2c2.6,0,4.6,0.4,6,1.1  c1.4,0.7,2,2.1,2,4c0,1.6-0.9,2.8-2.7,3.5c-1,0.4-2.6,0.8-4.9,1.1l-4.2,0.5c-4.8,0.6-8.4,1.6-10.9,3c-4.5,2.6-6.8,6.8-6.8,12.6  c0,4.5,1.4,7.9,4.2,10.4c2.8,2.4,6.4,3.5,10.7,3.7c27,1.2,26.7-14.2,26.9-17.4v-17.7C523.9,272.7,521.9,268.8,517.9,266.7  L517.9,266.7z M511.6,293.6c-0.1,4.1-1.3,7-3.5,8.5c-2.3,1.6-4.8,2.3-7.5,2.3c-1.7,0-3.2-0.5-4.3-1.4c-1.2-0.9-1.8-2.5-1.8-4.6  c0-2.4,1-4.1,2.9-5.2c1.2-0.7,3-1.2,5.7-1.7l2.8-0.5c1.4-0.3,2.5-0.6,3.3-0.9c0.8-0.3,1.6-0.7,2.4-1.2L511.6,293.6L511.6,293.6z   M456.4,274.2c3.1,0,5.3,1,6.8,2.9c1,1.4,1.6,3,1.9,4.8h13.3c-0.7-6.7-3.1-11.4-7-14c-4-2.6-9.1-4-15.3-4c-7.3,0-13.1,2.2-17.2,6.7  c-4.2,4.5-6.2,10.8-6.2,18.9c0,7.1,1.9,13,5.7,17.5c3.8,4.5,9.6,6.7,17.6,6.7c8,0,14-2.7,18.1-8.1c2.6-3.3,4-6.9,4.3-10.6H465  c-0.3,2.5-1,4.5-2.3,6.1c-1.3,1.5-3.4,2.3-6.5,2.3c-4.3,0-7.2-2-8.8-5.9c-0.9-2.1-1.3-4.9-1.3-8.3s0.4-6.5,1.3-8.7  C449,276.3,452,274.2,456.4,274.2L456.4,274.2z M429,263.8c-27.3,0-25.7,24.2-25.7,24.2v24.6h12.4v-23c0-3.8,0.5-6.6,1.4-8.4  c1.7-3.2,5-4.8,10-4.8c0.4,0,0.9,0,1.5,0.1c0.6,0,1.3,0.1,2.1,0.2v-12.6c-0.5,0-0.9-0.1-1.1-0.1C429.4,263.8,429.2,263.8,429,263.8  L429,263.8z M393.4,273c-2.1-3.2-4.9-5.5-8.1-7c-3.3-1.5-7-2.2-11.1-2.2c-6.9,0-12.5,2.2-16.8,6.5c-4.3,4.4-6.5,10.6-6.5,18.8  c0,8.7,2.4,15,7.2,18.9c4.8,3.9,10.3,5.8,16.6,5.8c7.6,0,13.5-2.3,17.7-6.9c2.3-2.4,3.7-4.8,4.3-7.1h-13.2c-0.5,0.7-1.1,1.4-1.7,1.9  c-1.8,1.4-4.1,1.9-6.9,1.9c-2.6,0-4.7-0.4-6.6-1.6c-3.1-1.9-4.8-5.1-5-9.8h34.3c0-4.1-0.1-7.2-0.4-9.4  C396.6,279,395.3,275.8,393.4,273L393.4,273z M363.5,283.9c0.4-3.1,1.5-5.5,3.3-7.3c1.7-1.8,4.2-2.7,7.4-2.7c2.9,0,5.3,0.8,7.3,2.5  c2,1.7,3,4.2,3.3,7.4H363.5L363.5,283.9z M326.2,263.6c-5.8,0-10.7,2.5-14.1,6.6c-3.2-4-8.1-6.6-14.1-6.6  c-12.1,0-19.9,8.9-19.9,20.7v28.2h11.3V284c0-5.2,3.5-8.8,8.6-8.8c7.5,0,8.2,6.2,8.2,8.8v28.5h11.3V284c0-5.2,3.6-8.8,8.6-8.8  c7.5,0,8.3,6.2,8.3,8.8v28.5h11.3v-28.2C345.9,272.2,338.6,263.6,326.2,263.6L326.2,263.6z M561.1,257.6l0,13.3  c-1.4-2.2-3.2-4-5.4-5.2c-2.2-1.2-4.7-1.9-7.6-1.9c-6.2,0-11.1,2.3-14.8,6.9c-3.7,4.6-5.6,11.3-5.6,19.3c0,7,1.9,12.7,5.6,17.1  c3.8,4.4,11.1,6.4,17.7,6.4c22.8,0,22.6-19.6,22.6-19.6v-45C573.6,248.9,561.1,247.6,561.1,257.6L561.1,257.6z M558.7,299.6  c-1.8,2.6-4.5,3.9-7.9,3.9s-6.1-1.3-7.8-3.9c-1.7-2.6-2.6-6.4-2.6-10.8c0-4,0.8-7.4,2.5-10.1s4.3-4.1,7.9-4.1c2.4,0,4.4,0.7,6.2,2.2  c2.9,2.5,4.4,6.9,4.4,12.7C561.5,293.6,560.5,297,558.7,299.6L558.7,299.6z M304.3,331.5c-10.2-0.5-15.4,2-18.7,4.5  c-4.6,3.5-7.5,8.8-7.5,17.2v43.1h6c1.6,0,3.2-0.6,4.4-1.6c1.3-1.2,2-2.7,2-4.5V374c1.5,2.5,3.4,4.4,5.8,5.6c2.3,1.1,5,1.6,8,1.6  c5.7,0,10.4-2.3,14-6.8c3.6-4.7,5.5-10.8,5.5-18.3c0-7.6-1.7-12.9-5.9-18C314.7,334,309.6,331.7,304.3,331.5L304.3,331.5z   M308.6,366.8c-1.8,2.5-4.3,3.8-7.5,3.8c-3.4,0-6-1.2-7.8-3.8c-1.8-2.3-2.7-5.7-2.7-10.2c0-4.9,0.8-8.5,2.5-10.8  c1.8-2.5,4.4-3.8,7.7-3.8c3.3,0,6,1.3,7.8,3.8c1.8,2.5,2.7,6.1,2.7,10.8C311.3,360.9,310.4,364.3,308.6,366.8z M410.8,335.9  c-4.2-3.2-8.5-4.9-15.9-4.7c-7.5,0.2-13,2.3-16.4,6.9c-3.4,4.6-5.1,10.6-5.1,18c0,6.3,1.3,11.5,3.8,15.4c2.6,3.9,5.6,6.6,9.2,8  c3.6,1.4,7.2,1.7,10.8,0.9c3.6-0.8,6.5-2.9,8.7-6.3v3c-0.2,3.8-1.2,6.7-2.8,8.6c-1.6,1.9-3.4,3.1-5.4,3.5c-2,0.4-3.9,0.2-5.9-0.7  c-2-0.9-3.4-2.2-4.4-3.9h-13.1c3.4,10.2,9.5,14.7,20.4,15.4c17.6,1.3,23.3-13.7,23.3-21.7v-25.3  C418.2,344.8,415.4,339.4,410.8,335.9L410.8,335.9z M405.6,360.8c-0.5,2.8-1.2,4.9-2.3,6.2c-2.3,3.1-5.8,4.2-10.5,3.3  c-4.8-0.9-7.2-5.5-7.2-13.7c0-3.8,0.7-7.2,2.1-10.2c1.4-3,4.2-4.5,8.2-4.5c3,0,5.3,1.1,6.8,3.2c1.6,2.2,2.5,4.6,3,7.4  C406.1,355.2,406.1,358,405.6,360.8L405.6,360.8z M362.8,334.7c-4-2-8.6-3.1-13.8-3.1c-8,0-13.6,2.1-16.9,6.2  c-2.1,2.7-3.2,6.1-3.5,10.2h11.9c0.3-1.8,0.9-3.3,1.8-4.3c1.2-1.4,3.3-2.2,6.3-2.2c2.6,0,4.6,0.4,6,1.1c1.4,0.7,2,2.1,2,4  c0,1.6-0.9,2.8-2.7,3.5c-1,0.4-2.6,0.8-4.9,1.1l-4.2,0.5c-4.8,0.6-8.5,1.6-10.9,3c-4.5,2.6-6.8,6.8-6.8,12.6c0,4.5,1.4,7.9,4.2,10.4  c2.8,2.4,6.4,3.5,10.7,3.7c26.9,1.2,26.6-14.2,26.9-17.4v-17.7C368.9,340.6,366.9,336.7,362.8,334.7L362.8,334.7z M356.5,361.6  c-0.1,4.1-1.3,7-3.5,8.5c-2.3,1.6-4.8,2.3-7.5,2.3c-1.7,0-3.1-0.5-4.3-1.4c-1.2-0.9-1.8-2.5-1.8-4.6c0-2.4,1-4.1,2.9-5.2  c1.2-0.7,3-1.2,5.7-1.7l2.8-0.5c1.4-0.3,2.5-0.5,3.3-0.9c0.8-0.3,1.6-0.7,2.4-1.2V361.6L356.5,361.6z M465,338.6  c-4-5-10-7.5-18.1-7.5c-8.1,0-14.1,2.5-18.1,7.5c-4,5-6,10.9-6,17.6s2,12.8,6,17.7c4,4.9,10,7.3,18.1,7.3c8.1,0,14.1-2.5,18.1-7.3  c4-4.9,6-10.8,6-17.7C471,349.3,469,343.6,465,338.6z M455.2,367.1c-1.9,2.6-4.7,3.8-8.3,3.8c-3.6,0-6.4-1.3-8.3-3.8  c-2-2.6-2.9-6.2-2.9-10.9c0-4.7,1-8.3,2.9-10.9c1.9-2.5,4.7-3.8,8.3-3.8c3.6,0,6.4,1.3,8.3,3.8c1.9,2.5,2.9,6.2,2.9,10.9  C458.1,361,457.1,364.6,455.2,367.1z"/>
</svg>