<?xml version="1.0" encoding="UTF-8" standalone="no"?>
<svg
   xmlns:dc="http://purl.org/dc/elements/1.1/"
   xmlns:cc="http://creativecommons.org/ns#"
   xmlns:rdf="http://www.w3.org/1999/02/22-rdf-syntax-ns#"
   xmlns:svg="http://www.w3.org/2000/svg"
   xmlns="http://www.w3.org/2000/svg"
   viewBox="0 0 380.86667 97.386665"
   height="97.386665"
   width="380.86667"
   xml:space="preserve"
   id="svg2"
   version="1.1"><metadata
     id="metadata8"><rdf:RDF><cc:Work
         rdf:about=""><dc:format>image/svg+xml</dc:format><dc:type
           rdf:resource="http://purl.org/dc/dcmitype/StillImage" /></cc:Work></rdf:RDF></metadata><defs
     id="defs6" /><g
     transform="matrix(1.3333333,0,0,-1.3333333,0,97.386667)"
     id="g10"><g
       transform="scale(0.1)"
       id="g12"><path
         id="path14"
         style="fill:#231f20;fill-opacity:1;fill-rule:nonzero;stroke:none"
         d="M 697.371,502.645 C 620.668,688.184 408.621,776.367 223.695,699.598 38.8086,622.848 -48.9336,410.188 27.7383,224.641 104.418,39.1328 316.488,-49.0547 501.379,27.7148 686.313,104.48 774.055,317.109 697.371,502.645 v 0" /><path
         id="path16"
         style="fill:#231f20;fill-opacity:1;fill-rule:nonzero;stroke:none"
         d="M 492.754,678.535 C 319.391,750.516 120.586,667.852 48.6953,493.902 -23.1602,319.98 59.0859,120.613 232.418,48.6719 405.781,-23.3125 604.586,59.3477 676.477,233.301 748.363,407.227 666.094,606.586 492.754,678.535" /><path
         id="path18"
         style="fill:#dde165;fill-opacity:1;fill-rule:nonzero;stroke:none"
         d="m 663.867,412.945 c 0,167.028 -134.867,302.414 -301.285,302.414 -166.375,0 -301.2382,-135.386 -301.2382,-302.414 0,-167.027 134.8632,-302.449 301.2382,-302.449 166.418,0 301.285,135.422 301.285,302.449" /><path
         id="path20"
         style="fill:#231f20;fill-opacity:1;fill-rule:nonzero;stroke:none"
         d="M 362.527,707.176 C 245.203,707.176 139.453,636.188 94.5938,527.395 49.7422,418.547 74.6328,293.301 157.652,210.09 240.66,126.863 365.43,102.07 473.805,147.258 582.141,192.422 652.676,298.699 652.5,416.488 652.418,577.203 522.656,707.523 362.527,707.699 Z m 0,-604.637 c -172.718,0 -312.7106,140.547 -312.7106,313.949 0,173.364 139.9926,313.926 312.7106,313.926 172.723,0 312.743,-140.555 312.743,-313.926 0,-173.39 -140.02,-313.949 -312.743,-313.949" /><path
         id="path22"
         style="fill:#a6dfe4;fill-opacity:1;fill-rule:nonzero;stroke:none"
         d="m 562.188,274.434 c 0,138.652 -111.985,251.043 -250.098,251.043 -138.098,0 -250.0783,-112.391 -250.0783,-251.043 0,-138.614 111.9803,-251.0277 250.0783,-251.0277 138.113,0 250.098,112.4137 250.098,251.0277 v 0" /><path
         id="path24"
         style="fill:#231f20;fill-opacity:1;fill-rule:nonzero;stroke:none"
         d="M 312.031,514.141 C 186.664,514.117 82.6758,416.813 73.8711,291.277 65.0742,165.754 154.48,54.7656 278.578,37.1094 402.695,19.4727 519.285,101.16 545.551,224.227 c 15.09,70.753 -2.485,144.535 -47.832,200.886 -45.223,56.27 -113.504,89.004 -185.699,89.035 z M 312.617,11.9648 C 294.023,11.9414 275.484,13.8945 257.305,17.7734 116.156,48.1641 26.2734,187.668 56.5273,329.363 86.7813,471.074 225.727,561.34 366.895,530.961 508.074,500.625 597.988,361.152 567.793,219.453 541.988,98.7617 435.918,12.3945 312.969,11.9648 h -0.352" /><path
         id="path26"
         style="fill:#f0da41;fill-opacity:1;fill-rule:nonzero;stroke:none"
         d="m 685.691,263.879 c 0,86.004 -69.457,155.726 -155.14,155.726 -85.688,0 -155.145,-69.722 -155.145,-155.726 0,-86.047 69.457,-155.766 155.145,-155.766 85.683,0 155.14,69.719 155.14,155.766 v 0" /><path
         id="path28"
         style="fill:#231f20;fill-opacity:1;fill-rule:nonzero;stroke:none"
         d="m 2755.42,420.105 c -44.13,0 -66.39,-62.5 -66.39,-99.785 0,-25.691 9.86,-44.578 37.67,-44.578 43.27,0 68.14,62.957 68.14,99.832 0,25.696 -11.6,44.531 -39.42,44.531 z m -37.29,-184.199 c -47.55,0 -91.26,26.157 -91.26,77.981 0,83.086 53.56,146.058 138.8,146.058 47.55,0 90.8,-25.293 90.8,-77.535 0,-82.207 -54.39,-146.504 -138.34,-146.504 z m -86.5,168.379 c -5.57,2.043 -11.47,3.067 -17.4,3.012 -39.01,0 -60.82,-37.746 -68.12,-72.016 l -20.12,-94.617 h -59.6 l 35.54,167.039 c 3.66,15.692 6.52,31.567 8.58,47.547 h 55.67 l -8.12,-44.129 c 13.27,26.559 39.43,49.277 70.26,49.277 5.79,0.153 11.54,-0.574 17.11,-2.14 z M 2438.44,289.016 c -3.54,-15.969 -6.28,-32.114 -8.18,-48.352 h -55.25 l 5.81,38.496 c -18.44,-25.222 -41.18,-43.254 -76.72,-43.254 -35.55,0 -59.08,17.395 -59.08,53.11 -0.13,8.211 0.59,16.406 2.14,24.468 l 30.38,142.625 h 59.14 l -26.83,-129.8 c -1.93,-7.293 -3.09,-14.746 -3.43,-22.278 0,-16.304 7.72,-28.289 28.29,-28.289 32.13,0 47.08,29.571 53.12,56.985 l 26.36,123.382 h 59.1 z m -279.29,131.089 c -49.28,0 -95.09,-50.554 -95.09,-110.496 0,-19.257 6.84,-33.398 27.83,-33.398 40.24,0 62.51,51.367 71.55,89.512 l 12.41,51.613 c -5.42,1.742 -11.06,2.68 -16.74,2.769 z m 41.97,-150.742 c -19.29,-86.57 -50.95,-125.925 -146.11,-125.925 -25.3,0.007 -50.44,4.042 -74.49,11.933 l 11.59,42.449 c 19.04,-9.922 40.25,-14.922 61.69,-14.566 53.57,0 74.1,28.25 83.96,68.531 l 6.89,28.242 c -20.58,-27.422 -41.98,-39.363 -77.57,-39.363 -44.12,0 -65.51,27.363 -65.51,63.777 0,96.829 88.24,155.504 170.45,155.504 23.5,-0.097 46.89,-3.265 69.58,-9.394 z m -276.95,155.903 c -32.53,0 -56.13,-33.86 -66.79,-61.684 38.54,0 92.47,6.84 92.47,40.59 0.52,15.933 -11.08,21.101 -25.46,21.101 z m -72.37,-93.813 c -2.07,-6.492 -3.1,-13.289 -3.02,-20.113 0,-28.996 22.27,-40.578 48.42,-40.578 23.36,0.398 46.16,7.207 65.92,19.695 l -2.09,-38.144 c -25.66,-11.727 -53.64,-17.43 -81.86,-16.7 -46.67,0 -90.8,20.176 -90.8,72.832 0,85.278 64.71,151.203 140.95,151.203 34.78,0 74.09,-12.406 74.09,-51.828 0.23,-67.382 -97.87,-76.367 -151.61,-76.367 z m -67.89,142.629 c -18.41,9.086 -38.61,13.926 -59.14,14.145 -26.08,0 -65.12,-11.997 -65.12,-41.563 0,-41.508 113.13,-35.141 113.13,-113.937 0,-62.551 -59.14,-96.821 -131.5,-96.821 -28.35,-0.484 -56.59,3.723 -83.55,12.461 l 15.02,46.379 c 21.73,-11.164 45.92,-16.66 70.33,-15.996 30.43,0.41 64.24,14.141 64.24,45.867 0,44.934 -112.19,40.235 -112.19,112.653 0,68.062 68.06,93.343 133.35,93.343 24.01,0.047 47.82,-4.3 70.27,-12.808 z m -293.44,-53.977 c -49.27,0 -95.08,-50.554 -95.08,-110.496 0,-19.257 6.84,-33.398 27.83,-33.398 40.3,0 62.56,51.367 71.55,89.512 l 12.4,51.613 c -5.4,1.734 -11.01,2.668 -16.7,2.769 z m 41.98,-150.742 c -19.24,-86.57 -50.97,-125.925 -146.04,-125.925 -25.33,0.007 -50.5,4.035 -74.56,11.933 l 11.6,42.449 c 19.01,-9.929 40.23,-14.929 61.68,-14.566 53.51,0 74.09,28.25 83.96,68.531 l 6.83,28.242 c -20.58,-27.422 -41.97,-39.363 -77.51,-39.363 -44.12,0 -65.58,27.363 -65.58,63.777 0,96.829 88.25,155.504 170.52,155.504 23.5,-0.105 46.89,-3.265 69.57,-9.394 z m -282.7,151.211 c -49.28,0 -94.22,-52.176 -94.22,-109.707 0,-19.246 6.84,-35.125 28.99,-35.125 29.98,0 58.66,41.16 70.68,92.766 l 11.6,49.683 c -5.5,1.813 -11.28,2.622 -17.05,2.383 z m 53.51,-103.672 c -5.84,-25.039 -9.28,-50.554 -10.26,-76.238 h -60.42 c 0.88,10.664 4.75,30.84 8.17,50.496 -15.42,-27.82 -40.57,-55.254 -82.67,-55.254 -43.25,0 -65.11,29.004 -65.11,68.535 0,96.418 86.1,155.957 168.14,155.957 24.87,0 57.01,-4.281 71.96,-9.855 z m -311.405,167.45 h -33.394 l -20.523,-96.024 h 21.382 c 41.98,0 80.78,9.516 80.78,59.606 0,22.718 -23.84,36.418 -48.245,36.418 z M 984.148,346.406 H 929.352 L 907.086,240.664 h -62.555 l 60.821,285.652 h 117.808 c 47.95,0 80.71,-33.617 80.71,-72.347 0,-76.711 -61.05,-107.563 -119.722,-107.563 z m -453.597,61.809 c -58.188,0.027 -110.692,-35.156 -132.961,-89.113 -22.277,-53.965 -9.988,-116.016 31.172,-157.403 41.066,-41.289 103.031,-53.664 156.812,-31.308 53.75,22.382 88.789,75.058 88.762,133.488 -0.082,79.668 -64.41,144.258 -143.785,144.336 z m 0,-311.4767 c -91.965,0 -166.488,74.8247 -166.488,167.1407 0,92.312 74.523,167.137 166.488,167.137 91.965,0 166.504,-74.825 166.504,-167.137 C 696.965,171.582 622.457,96.8164 530.551,96.7383" /></g></g></svg>