<?xml version="1.0" encoding="UTF-8" standalone="no"?>
<svg
   xmlns:dc="http://purl.org/dc/elements/1.1/"
   xmlns:cc="http://creativecommons.org/ns#"
   xmlns:rdf="http://www.w3.org/1999/02/22-rdf-syntax-ns#"
   xmlns:svg="http://www.w3.org/2000/svg"
   xmlns="http://www.w3.org/2000/svg"
   xmlns:sodipodi="http://sodipodi.sourceforge.net/DTD/sodipodi-0.dtd"
   xmlns:inkscape="http://www.inkscape.org/namespaces/inkscape"
   inkscape:version="1.0 (4035a4fb49, 2020-05-01)"
   height="40"
   width="123.99999"
   sodipodi:docname="picpay-logo.svg"
   version="1.1"
   viewBox="0 0 123.99999 40.000001"
   id="svg">
  <sodipodi:namedview
     inkscape:current-layer="svg"
     inkscape:window-maximized="1"
     inkscape:window-y="-8"
     inkscape:window-x="-8"
     inkscape:cy="21.068984"
     inkscape:cx="66.437525"
     inkscape:zoom="2.4007834"
     showgrid="false"
     id="namedview20"
     inkscape:window-height="715"
     inkscape:window-width="1366"
     inkscape:pageshadow="2"
     inkscape:pageopacity="0"
     guidetolerance="10"
     gridtolerance="10"
     objecttolerance="10"
     borderopacity="1"
     bordercolor="#666666"
     pagecolor="#ffffff" />
  <metadata
     id="metadata9">
    <rdf:RDF>
      <cc:Work
         rdf:about="">
        <dc:format>image/svg+xml</dc:format>
        <dc:type
           rdf:resource="http://purl.org/dc/dcmitype/StillImage" />
        <dc:title />
      </cc:Work>
    </rdf:RDF>
  </metadata>
  <defs
     id="defs7" />
  <path
     style="fill:#21c25e;fill-opacity:1"
     id="path2"
     d="m 25.5,32.3 h 5.8 V 15.4 H 25.5 Z M 33.3,3.9 h -3.9 v 3.9 h 3.9 z M 11.4,5.8 H 5.8 v 4.9 H 11 c 3.3,0 5.2,1.6 5.2,4.6 0,3 -1.9,4.7 -5.2,4.7 H 5.8 V 10.8 H 0 v 21.5 h 5.8 v -7.4 h 5.5 c 6.7,0 10.6,-3.6 10.6,-9.8 0,-5.8 -3.8,-9.3 -10.5,-9.3 z M 37.2,0 H 25.5 V 11.7 H 37.2 Z M 35.3,9.7 H 27.5 V 1.9 h 7.8 z m 34,-3.9 H 64 v 4.9 h 5 c 3.3,0 5.2,1.6 5.2,4.6 0,3 -1.9,4.7 -5.2,4.7 H 64 V 10.8 H 58.2 V 32.3 H 64 v -7.4 h 5.3 c 6.699995,0 10.599995,-3.6 10.599995,-9.8 0,-5.8 -3.9,-9.3 -10.599995,-9.3 z M 118,12 113,24.6 108,12 h -6 l 8,20.3 -3.1,7.7 H 113 L 124,12 Z M 91.999995,11.9 c -3.5,0 -6.2,0.8 -9.2,2.3 l 1.8,4 c 2.1,-1.2 4.2,-1.8 6.1,-1.8 2.8,0 4.2,1.2 4.2,3.4 v 0.4 h -5.6 c -5,0 -7.7,2.3 -7.7,6.1 0,3.7 2.6,6.3 7,6.3 2.8,0 4.8,-1 6.4,-2.7 v 2.2 H 100.7 V 18.9 c -0.2,-4.3 -3.300005,-7 -8.700005,-7 z m 3.4,13.6 c -0.6,1.7 -2.3,3.1 -4.7,3.1 -2,0 -3.2,-1 -3.2,-2.6 0,-1.6 1.1,-2.3 3.3,-2.3 h 4.6 z M 46.1,27.9 c -2.8,0 -4.8,-2.2 -4.8,-5.5 0,-3.2 2,-5.4 4.8,-5.4 2,0 3.5,0.8 4.6,2.2 l 3.9,-2.8 C 52.8,13.7 49.7,12.1 45.8,12.1 39.7,12 35.5,16.2 35.5,22.4 c 0,6.2 4.2,10.3 10.3,10.3 4.2,0 7.3,-1.7 9,-4.5 l -4,-2.7 c -1,1.6 -2.6,2.4 -4.7,2.4 z"
     class="logo" />
</svg>
